PathFileType	4	(X/Y/Z)	C:/Users/beibeiliu/ov580/test_trc/User2\sequence.1_training_dense_left.trc
DataRate	CameraRate	NumFrames	NumMarkers	Units	OrigDataRate	OrigDataStartFrame	OrigNumFrames
120	120	16	19	mm	120	1	338
Frame#	Time	ThumbCMC			ThumbMCP			ThumbIP			ThumbTip			IndexMCP			IndexPIP			IndexTip			MiddleMCP			MiddlePIP			MiddleTip			RingMCP			RingPIP			RingTip			PinkyMCP			PinkyPIP			PinkyTip			BackHand1			BackHand2			BackHand3	
		X0	Y0	Z0	X1	Y1	Z1	X2	Y2	Z2	X3	Y3	Z3	X4	Y4	Z4	X5	Y5	Z5	X6	Y6	Z6	X7	Y7	Z7	X8	Y8	Z8	X9	Y9	Z9	X10	Y10	Z10	X11	Y11	Z11	X12	Y12	Z12	X13	Y13	Z13	X14	Y14	Z14	X15	Y15	Z15	X16	Y16	Z16	X17	Y17	Z17	X18	Y18	Z18	
0	0	-134.609	-13.9113	284.836	-116.955	-21.9445	261.581	-95.1174	-24.9732	234.105	-83.0696	-30.9186	209.449	-167.316	10.1638	209.183	-163.185	11.9544	181.547	-162.733	13.1091	148.405	-196.2	10.9747	206.592	-203.736	13.5986	174.609	-211.624	10.9327	143.143	-218.702	2.1099	214.582	-228.071	4.65612	192.309	-236.606	4.12849	163.636	-238.202	-16.2872	235.865	-250.176	-14.1414	216.479	-261.397	-5.97316	193.705	-208.368	-0.595614	268.525	-203.046	-1.35785	306.061	-172.907	8.32335	280.303	
1	0.00833333	-135.994	-16.4096	283.032	-115.694	-22.8387	260.837	-99.9842	-28.3032	233.411	-84.1599	-34.5379	209.656	-167.434	8.52751	208.102	-164.672	11.1678	177.671	-164.275	9.78195	147.421	-195.488	9.38163	204.179	-201.846	11.3295	177.067	-211.295	8.73745	143.306	-222.113	-1.02816	217.875	-226.916	2.06185	191.786	-237.264	2.56423	158.95	-233.971	-19.6239	238.329	-252.774	-14.953	212.933	-263.274	-8.40278	197.119	-209.285	-4.62451	272.461	-202.301	-1.45002	303.518	-171.786	5.81484	278.391	
2	0.0166667	-135.045	-19.1179	285.081	-116.636	-25.7312	263.552	-95.7025	-29.9647	230.629	-85.843	-37.3374	213.598	-161.733	7.09281	204.73	-164.129	8.20978	180.009	-159.895	8.02856	151.613	-196.315	6.5661	207.947	-201.309	8.61433	176.024	-207.068	7.05057	144.745	-215.772	-2.55135	218.736	-227.56	-0.150667	187.825	-236.986	-0.489381	160.458	-235.226	-20.3107	238.477	-251.188	-18.1869	215.315	-261.459	-12.1925	195.954	-209.142	-5.55802	272.413	-200.421	-4.38539	303.163	-171.752	3.11703	281.485	
3	0.025	-131.513	-18.7719	280.745	-116.432	-26.8235	260.83	-96.7611	-31.8023	232.783	-83.7808	-38.9608	215.564	-163.486	4.78784	205.744	-159.189	7.70375	176.954	-164.331	4.94642	153.055	-192.664	4.67009	209.099	-200.868	6.60699	174.19	-208.703	3.86466	144.61	-215.176	-3.51728	216.358	-226.908	-2.40957	189.56	-232.383	-2.21386	164.965	-229.638	-21.8737	238.36	-246.346	-17.4071	215.131	-260.999	-11.3712	198.138	-206.728	-7.01343	269.494	-203.24	-5.42043	303.107	-169.744	2.9289	278.642	
4	0.0333333	-134.701	-22.0607	286.175	-114.415	-27.9736	260.657	-93.4074	-33.461	235.803	-80.5792	-40.3345	215.33	-159.876	2.90844	210.23	-159.8	4.85194	183.292	-158.944	4.12602	154.689	-190.826	4.99879	204.694	-197.622	4.15566	172.822	-205.289	2.61782	147.162	-218.537	-7.35917	219.311	-225.29	-3.63589	189.216	-234.488	-5.37288	162.199	-235.015	-23.7586	239.661	-243.993	-19.8437	216.979	-260.515	-12.8936	199.324	-206.83	-6.93906	271.915	-197.253	-4.72785	302.279	-169.549	0.364005	279.885	
5	0.0416667	-133.905	-22.0734	283.83	-114.692	-28.7136	263.37	-95.3548	-33.8656	233.838	-79.8975	-41.3821	215.735	-158.745	1.47269	213.101	-162.596	3.27404	181.008	-159.548	2.52481	156.293	-194.16	1.55038	207.757	-197.758	2.89775	177.492	-208.226	-0.200991	148.309	-218.672	-8.67736	221.196	-227.76	-6.27834	192.017	-234.814	-7.40531	167.412	-232.261	-23.6606	241.382	-242.922	-21.7756	220.589	-259.865	-16.599	200.967	-202.315	-8.16484	276.502	-198.43	-7.15727	306.396	-165.545	-0.211908	282.375	
6	0.05	-131.496	-22.4746	285.906	-112.413	-29.8505	264.352	-96.694	-37.736	239.735	-83.0225	-43.4222	218.637	-163.453	0.147402	210.118	-159.371	1.15798	186.818	-162.531	0.541888	158.09	-195.44	-0.341333	209.378	-197.548	0.647671	181.764	-207.169	-0.749691	148.367	-213.75	-9.70023	224.271	-225.895	-8.27739	196.698	-232.722	-7.01078	165.285	-234.497	-25.9608	244.241	-247.92	-22.3216	219.316	-260.337	-16.713	202.132	-201.029	-11.3296	278.484	-199.432	-8.43234	310.434	-168.736	-0.395694	286.316	
7	0.0583333	-131.482	-23.7027	292.216	-113.529	-31.9021	268.801	-93.8462	-36.5768	237.609	-80.2781	-44.1994	220.496	-162.747	-1.03108	213.015	-159.534	-0.30299	183.636	-163.963	-0.791525	159.748	-193.897	-1.92101	211.043	-199.013	-1.7085	182.69	-204.438	-3.10589	146.955	-214.378	-10.4323	225.135	-228.712	-10.2768	198.822	-234.504	-10.3633	171.303	-235.387	-25.3206	244.752	-245.49	-23.934	224.219	-261.189	-17.2211	201.28	-206.587	-12.8924	281.437	-199.762	-9.11957	310.311	-166.387	-0.0515356	286.463	
8	0.0666667	-132.438	-25.6842	289.84	-115.2	-33.5036	266.463	-98.497	-39.5075	239.777	-83.7142	-45.7538	216.642	-162.791	-3.22162	215.965	-161.185	-1.56781	183.754	-159.136	-2.61125	155.503	-193.106	-3.15389	215.292	-202.631	-2.89491	180.47	-207.003	-5.14215	150.705	-217.156	-11.4471	225.317	-228.433	-10.7633	200.292	-232.544	-10.7671	168.909	-233.887	-28.4548	250.014	-245.452	-25.0749	226.584	-261.417	-18.7958	204.891	-204.502	-14.0296	279.98	-199.729	-11.1029	314	-167.905	-4.00933	288.04	
9	0.075	-134.685	-26.4862	291.361	-111.638	-33.7771	267.048	-94.0346	-39.7672	241.795	-86.4105	-49.128	219.889	-162.064	-4.07985	214.311	-163.733	-2.73262	188.263	-163.238	-2.91008	158.306	-192.455	-2.66366	212.654	-198.556	-1.94035	181.777	-206.351	-5.57026	151.727	-214.808	-10.6771	223.365	-229.278	-10.8833	201.985	-234.134	-12.102	170.906	-229.831	-28.4498	248.617	-248.323	-25.1258	224.569	-259.811	-20.212	204.209	-207.416	-14.1304	280.903	-200.609	-9.82426	309.671	-167.139	-3.72548	288.135	
10	0.0833333	-133.536	-25.4407	288.062	-114.508	-34.168	266.701	-96.4369	-41.1685	238.684	-83.859	-48.726	216.896	-165.354	-4.9078	212.15	-161.935	-3.21336	185.916	-164.97	-3.64945	155.037	-194.93	-2.73446	210.3	-200.206	-2.83775	181.921	-211.189	-6.18249	151.551	-221.031	-13.4299	225.647	-229.724	-11.1058	200.42	-235.219	-11.1195	168.513	-231.019	-28.5672	247.132	-248.367	-24.5291	223.887	-260.464	-20.7975	203.443	-207.848	-14.2162	280.097	-200.675	-10.8824	307.406	-170.205	-3.26179	286.295	
11	0.0916667	-137.004	-27.4768	290.054	-112.323	-33.9898	267.549	-95.209	-40.5216	239.312	-87.5126	-49.2282	217.997	-164.616	-4.16305	210.846	-163.169	-2.62835	182.652	-166.089	-3.16166	158.037	-195.179	-3.14417	212.274	-204.012	-2.16479	179.607	-211.677	-5.06942	147.02	-219.778	-13.0676	226.193	-227.291	-10.5071	199.199	-237.355	-11.2682	171.693	-233.079	-25.2849	241.827	-246.445	-24.6784	223.908	-264.342	-19.3251	202.737	-208.703	-11.9311	277.455	-203.086	-9.81665	309.101	-167.83	-4.56722	283.036	
12	0.1	-138.262	-25.6199	285.761	-118.746	-35.1613	265.48	-95.6225	-40.8292	238.752	-84.2122	-47.4848	218.031	-164.215	-3.02182	209.747	-161.673	-1.52138	183.474	-165.18	-2.27817	158.861	-194.03	-1.66359	209.984	-204.019	-1.34492	178.031	-212.467	-3.55382	150.969	-222.129	-11.5128	224.947	-227.653	-8.92215	195.603	-237.356	-10.4327	169.543	-235.134	-27.2196	246.328	-248.306	-24.5006	224.87	-263.542	-16.5363	201.635	-204.837	-12.5259	274.788	-200.084	-9.80198	310.488	-169.623	-4.84664	285.653	
13	0.108333	-136.442	-27.0669	289.349	-115.084	-33.6276	264.49	-96.9092	-39.0441	236.427	-85.1019	-47.2471	216.365	-168.562	-3.48999	213.416	-165.145	-0.798799	186.514	-166.62	-1.5141	154.851	-196.632	-0.413233	208.94	-202.601	-0.453642	178.294	-210.254	-2.73912	150.909	-220.537	-10.2671	222.09	-228.926	-9.72939	199.39	-236.233	-10.2291	170.515	-234.729	-24.0598	241.464	-252.006	-23.1638	220.218	-262.521	-16.5529	201.104	-206.329	-12.7083	275.087	-201.278	-7.86703	308.161	-169.976	-2.33764	287.826	
14	0.116667	-135.178	-25.224	288.491	-116.367	-33.5088	267.63	-96.9622	-39.377	238.804	-87.3934	-46.6947	217.613	-168.865	-2.51766	210.498	-166.975	-0.912475	184.74	-166.956	-2.0593	155.404	-194.857	-1.3648	211.771	-201.541	-0.411957	179.61	-212.816	-3.21749	145.928	-219.842	-10.3228	222.786	-229.821	-8.98168	197.047	-235.032	-10.4022	170.449	-238.75	-25.1512	243.181	-250.541	-23.6719	224.636	-266.004	-15.7082	200.884	-209.928	-12.1286	278.829	-200.612	-10.2977	307.2	-171.944	-2.91303	285.234	
15	0.125	-135.408	-25.9055	287.748	-117.248	-33.4428	264.138	-97.2073	-38.0312	233.955	-85.72	-47.5833	218.658	-166.253	-2.60613	211.77	-162.887	-0.530983	183.826	-168.569	-1.04181	152.497	-197.92	-1.70788	212.911	-201.728	0.0208851	176.54	-211.054	-2.20592	149.152	-220.762	-10.6969	224.742	-228.262	-9.40258	198.093	-237.581	-11.0003	169.712	-238.537	-25.9032	244.426	-249.247	-23.2813	222.251	-262.493	-16.1733	200.278	-207.74	-12.7355	275.147	-200.806	-9.77341	307.881	-170.37	-0.91423	282.178	
